<svg fill="white" width="32" height="32" xmlns="http://www.w3.org/2000/svg" viewBox="0 0 32 32">
<path d="M16.236 20.913l-0.552 0.997-0.506-1.021c-0.156-0.315-0.318-0.663-0.489-1.049-0.802-1.821-0.879-3.587-0.268-4.552 0.268-0.425 0.662-0.675 1.36-0.708 0.468 0.036 0.878 0.27 1.191 0.777 0.628 1.012 0.616 2.706-0.19 4.465-0.18 0.394-0.362 0.758-0.547 1.091zM30.888 6.337c-0.25-0.636-0.55-1.091-0.954-1.342-0.495-0.307-1.162-0.296-2.099 0.176 0.048 0.107 0.105 0.235 0.168 0.383 0.214 0.503 0.428 1.060 0.627 1.655 0.36 1.076 0.634 2.158 0.788 3.219 0.046 0.344 0.070 0.542 0.087 0.759 0.365 4.645-0.688 8.584-2.997 11.083-1.476 1.596-3.408 2.517-5.314 2.517-1.722 0-2.537-0.116-3.409-0.622l-0.563-0.326 0.373-0.533c0.497-0.71 0.962-1.531 1.393-2.471 1.132-2.47 1.136-4.997 0.047-6.755-0.736-1.188-1.918-1.885-3.257-1.927l-0.066 0c-1.435 0.038-2.61 0.687-3.339 1.837-1.064 1.679-1.045 4.235 0.096 6.828 0.394 0.894 0.788 1.667 1.188 2.336l0.317 0.53-0.54 0.299c-1.115 0.618-2.388 0.836-4.191 0.805-2.931-0.045-5.855-2.139-6.606-5.395l-0.012-0.054-0.003-0.012c-0.013-0.055-0.013-0.055-0.025-0.116-0.026-0.127-0.042-0.229-0.072-0.446l-0.001-0.005-0.003-0.021c-0.022-0.167-0.039-0.338-0.054-0.532h-0.016l-0.011-0.408c-0.002-0.051-0.003-0.098-0.004-0.148l-0.001-0.026c-0.014-0.542 0.007-1.070 0.051-1.56 0.007-0.077 0.014-0.147 0.020-0.209-1.832-0.26-2.508 0.517-2.508 1.895 0 5.362 4.294 9.388 9.205 9.464 0.115 0.002 0.232 0.003 0.354 0.003 2.318 0 4.053-0.399 5.605-1.448l0.359-0.243 0.342 0.266c1.336 1.038 2.881 1.422 5.328 1.422 2.566 0 5.155-1.199 7.095-3.296 2.755-2.98 4.055-7.564 3.634-12.918-0.115-1.472-0.45-3.011-0.995-4.575-0.011-0.022-0.013-0.026-0.040-0.087z"></path>
</svg>